<?xml version="1.0" encoding="UTF-8" standalone="no"?>
<!DOCTYPE svg PUBLIC "-//W3C//DTD SVG 1.1//EN"
 "http://www.w3.org/Graphics/SVG/1.1/DTD/svg11.dtd">
<!-- Generated by graphviz version 2.43.0 (0)
 -->
<!-- Title: %3 Pages: 1 -->
<svg width="2456pt" height="404pt"
 viewBox="0.00 0.00 2455.75 404.00" xmlns="http://www.w3.org/2000/svg" xmlns:xlink="http://www.w3.org/1999/xlink">
<g id="graph0" class="graph" transform="scale(1 1) rotate(0) translate(4 400)">
<title>%3</title>
<polygon fill="white" stroke="transparent" points="-4,4 -4,-400 2451.75,-400 2451.75,4 -4,4"/>
<!-- [root] module.pets.local_file.arquivo (expand) -->
<g id="node1" class="node">
<title>[root] module.pets.local_file.arquivo (expand)</title>
<polygon fill="none" stroke="black" points="904.88,-180 675.88,-180 675.88,-144 904.88,-144 904.88,-180"/>
<text text-anchor="middle" x="790.38" y="-158.3" font-family="Times,serif" font-size="14.00">module.pets.local_file.arquivo</text>
</g>
<!-- [root] module.pets.random_pet.pet01 (expand) -->
<g id="node3" class="node">
<title>[root] module.pets.random_pet.pet01 (expand)</title>
<polygon fill="none" stroke="black" points="1692.88,-108 1453.88,-108 1453.88,-72 1692.88,-72 1692.88,-108"/>
<text text-anchor="middle" x="1573.38" y="-86.3" font-family="Times,serif" font-size="14.00">module.pets.random_pet.pet01</text>
</g>
<!-- [root] module.pets.local_file.arquivo (expand)&#45;&gt;[root] module.pets.random_pet.pet01 (expand) -->
<g id="edge5" class="edge">
<title>[root] module.pets.local_file.arquivo (expand)&#45;&gt;[root] module.pets.random_pet.pet01 (expand)</title>
<path fill="none" stroke="black" d="M904.93,-144.92C907.77,-144.6 910.59,-144.29 913.38,-144 1131.42,-120.98 1186.96,-127.04 1405.38,-108 1417.71,-106.93 1430.54,-105.74 1443.37,-104.52"/>
<polygon fill="black" stroke="black" points="1444.04,-107.97 1453.65,-103.53 1443.36,-101 1444.04,-107.97"/>
</g>
<!-- [root] provider[&quot;registry.terraform.io/hashicorp/local&quot;] -->
<g id="node5" class="node">
<title>[root] provider[&quot;registry.terraform.io/hashicorp/local&quot;]</title>
<polygon fill="none" stroke="black" points="810.38,-108 480.42,-90 810.38,-72 1140.33,-90 810.38,-108"/>
<text text-anchor="middle" x="810.38" y="-86.3" font-family="Times,serif" font-size="14.00">provider[&quot;registry.terraform.io/hashicorp/local&quot;]</text>
</g>
<!-- [root] module.pets.local_file.arquivo (expand)&#45;&gt;[root] provider[&quot;registry.terraform.io/hashicorp/local&quot;] -->
<g id="edge7" class="edge">
<title>[root] module.pets.local_file.arquivo (expand)&#45;&gt;[root] provider[&quot;registry.terraform.io/hashicorp/local&quot;]</title>
<path fill="none" stroke="black" d="M795.32,-143.7C797.55,-135.9 800.23,-126.51 802.71,-117.83"/>
<polygon fill="black" stroke="black" points="806.11,-118.68 805.49,-108.1 799.38,-116.76 806.11,-118.68"/>
</g>
<!-- [root] module.pets.var.prefixo_arquivo (expand) -->
<g id="node10" class="node">
<title>[root] module.pets.var.prefixo_arquivo (expand)</title>
<ellipse fill="none" stroke="black" cx="231.38" cy="-90" rx="231.26" ry="18"/>
<text text-anchor="middle" x="231.38" y="-86.3" font-family="Times,serif" font-size="14.00">[root] module.pets.var.prefixo_arquivo (expand)</text>
</g>
<!-- [root] module.pets.local_file.arquivo (expand)&#45;&gt;[root] module.pets.var.prefixo_arquivo (expand) -->
<g id="edge6" class="edge">
<title>[root] module.pets.local_file.arquivo (expand)&#45;&gt;[root] module.pets.var.prefixo_arquivo (expand)</title>
<path fill="none" stroke="black" d="M675.87,-145.24C672.67,-144.82 669.5,-144.4 666.38,-144 564.77,-130.85 449.69,-116.86 363.43,-106.57"/>
<polygon fill="black" stroke="black" points="363.66,-103.07 353.32,-105.36 362.83,-110.02 363.66,-103.07"/>
</g>
<!-- [root] module.pets.local_file.outro_arquivo (expand) -->
<g id="node2" class="node">
<title>[root] module.pets.local_file.outro_arquivo (expand)</title>
<polygon fill="none" stroke="black" points="657.38,-180 383.38,-180 383.38,-144 657.38,-144 657.38,-180"/>
<text text-anchor="middle" x="520.38" y="-158.3" font-family="Times,serif" font-size="14.00">module.pets.local_file.outro_arquivo</text>
</g>
<!-- [root] module.pets.random_pet.pet02 (expand) -->
<g id="node4" class="node">
<title>[root] module.pets.random_pet.pet02 (expand)</title>
<polygon fill="none" stroke="black" points="1396.88,-108 1157.88,-108 1157.88,-72 1396.88,-72 1396.88,-108"/>
<text text-anchor="middle" x="1277.38" y="-86.3" font-family="Times,serif" font-size="14.00">module.pets.random_pet.pet02</text>
</g>
<!-- [root] module.pets.local_file.outro_arquivo (expand)&#45;&gt;[root] module.pets.random_pet.pet02 (expand) -->
<g id="edge8" class="edge">
<title>[root] module.pets.local_file.outro_arquivo (expand)&#45;&gt;[root] module.pets.random_pet.pet02 (expand)</title>
<path fill="none" stroke="black" d="M657.53,-144.86C660.5,-144.57 663.46,-144.28 666.38,-144 877.42,-123.86 933.57,-129.98 1147.84,-108.13"/>
<polygon fill="black" stroke="black" points="1148.24,-111.6 1157.83,-107.1 1147.52,-104.64 1148.24,-111.6"/>
</g>
<!-- [root] module.pets.local_file.outro_arquivo (expand)&#45;&gt;[root] provider[&quot;registry.terraform.io/hashicorp/local&quot;] -->
<g id="edge10" class="edge">
<title>[root] module.pets.local_file.outro_arquivo (expand)&#45;&gt;[root] provider[&quot;registry.terraform.io/hashicorp/local&quot;]</title>
<path fill="none" stroke="black" d="M590.95,-143.97C637.18,-132.81 697.27,-118.3 742.87,-107.29"/>
<polygon fill="black" stroke="black" points="743.77,-110.68 752.67,-104.93 742.13,-103.87 743.77,-110.68"/>
</g>
<!-- [root] module.pets.local_file.outro_arquivo (expand)&#45;&gt;[root] module.pets.var.prefixo_arquivo (expand) -->
<g id="edge9" class="edge">
<title>[root] module.pets.local_file.outro_arquivo (expand)&#45;&gt;[root] module.pets.var.prefixo_arquivo (expand)</title>
<path fill="none" stroke="black" d="M450.05,-143.97C407.18,-133.58 352.36,-120.3 308.33,-109.64"/>
<polygon fill="black" stroke="black" points="309.08,-106.22 298.54,-107.27 307.43,-113.02 309.08,-106.22"/>
</g>
<!-- [root] provider[&quot;registry.terraform.io/hashicorp/random&quot;] -->
<g id="node6" class="node">
<title>[root] provider[&quot;registry.terraform.io/hashicorp/random&quot;]</title>
<polygon fill="none" stroke="black" points="1573.38,-36 1222.98,-18 1573.38,0 1923.78,-18 1573.38,-36"/>
<text text-anchor="middle" x="1573.38" y="-14.3" font-family="Times,serif" font-size="14.00">provider[&quot;registry.terraform.io/hashicorp/random&quot;]</text>
</g>
<!-- [root] module.pets.random_pet.pet01 (expand)&#45;&gt;[root] provider[&quot;registry.terraform.io/hashicorp/random&quot;] -->
<g id="edge14" class="edge">
<title>[root] module.pets.random_pet.pet01 (expand)&#45;&gt;[root] provider[&quot;registry.terraform.io/hashicorp/random&quot;]</title>
<path fill="none" stroke="black" d="M1573.38,-71.7C1573.38,-63.98 1573.38,-54.71 1573.38,-46.11"/>
<polygon fill="black" stroke="black" points="1576.88,-46.1 1573.38,-36.1 1569.88,-46.1 1576.88,-46.1"/>
</g>
<!-- [root] module.pets (expand) -->
<g id="node11" class="node">
<title>[root] module.pets (expand)</title>
<ellipse fill="none" stroke="black" cx="1065.38" cy="-18" rx="139.98" ry="18"/>
<text text-anchor="middle" x="1065.38" y="-14.3" font-family="Times,serif" font-size="14.00">[root] module.pets (expand)</text>
</g>
<!-- [root] module.pets.random_pet.pet01 (expand)&#45;&gt;[root] module.pets (expand) -->
<g id="edge13" class="edge">
<title>[root] module.pets.random_pet.pet01 (expand)&#45;&gt;[root] module.pets (expand)</title>
<path fill="none" stroke="black" d="M1453.63,-72.5C1366.39,-60.48 1249.5,-44.37 1166.84,-32.98"/>
<polygon fill="black" stroke="black" points="1167.32,-29.51 1156.93,-31.62 1166.36,-36.45 1167.32,-29.51"/>
</g>
<!-- [root] module.pets.random_pet.pet02 (expand)&#45;&gt;[root] provider[&quot;registry.terraform.io/hashicorp/random&quot;] -->
<g id="edge16" class="edge">
<title>[root] module.pets.random_pet.pet02 (expand)&#45;&gt;[root] provider[&quot;registry.terraform.io/hashicorp/random&quot;]</title>
<path fill="none" stroke="black" d="M1349.41,-71.97C1396.44,-60.84 1457.52,-46.4 1504.01,-35.41"/>
<polygon fill="black" stroke="black" points="1505.07,-38.75 1513.99,-33.04 1503.45,-31.94 1505.07,-38.75"/>
</g>
<!-- [root] module.pets.random_pet.pet02 (expand)&#45;&gt;[root] module.pets (expand) -->
<g id="edge15" class="edge">
<title>[root] module.pets.random_pet.pet02 (expand)&#45;&gt;[root] module.pets (expand)</title>
<path fill="none" stroke="black" d="M1225.79,-71.97C1194.8,-61.73 1155.3,-48.69 1123.25,-38.11"/>
<polygon fill="black" stroke="black" points="1124.15,-34.72 1113.56,-34.91 1121.96,-41.37 1124.15,-34.72"/>
</g>
<!-- [root] module.pets (close) -->
<g id="node7" class="node">
<title>[root] module.pets (close)</title>
<ellipse fill="none" stroke="black" cx="1140.38" cy="-234" rx="129.98" ry="18"/>
<text text-anchor="middle" x="1140.38" y="-230.3" font-family="Times,serif" font-size="14.00">[root] module.pets (close)</text>
</g>
<!-- [root] module.pets (close)&#45;&gt;[root] module.pets.local_file.arquivo (expand) -->
<g id="edge1" class="edge">
<title>[root] module.pets (close)&#45;&gt;[root] module.pets.local_file.arquivo (expand)</title>
<path fill="none" stroke="black" d="M1069.55,-218.83C1016.59,-208.24 943.6,-193.65 885.54,-182.03"/>
<polygon fill="black" stroke="black" points="886.12,-178.58 875.62,-180.05 884.74,-185.44 886.12,-178.58"/>
</g>
<!-- [root] module.pets (close)&#45;&gt;[root] module.pets.local_file.outro_arquivo (expand) -->
<g id="edge2" class="edge">
<title>[root] module.pets (close)&#45;&gt;[root] module.pets.local_file.outro_arquivo (expand)</title>
<path fill="none" stroke="black" d="M1047.31,-221.43C1031.97,-219.57 1016.23,-217.71 1001.38,-216 855.81,-199.28 816.86,-196.76 667.54,-180.12"/>
<polygon fill="black" stroke="black" points="667.87,-176.64 657.54,-179.01 667.09,-183.6 667.87,-176.64"/>
</g>
<!-- [root] module.pets.output.nome_01 (expand) -->
<g id="node8" class="node">
<title>[root] module.pets.output.nome_01 (expand)</title>
<ellipse fill="none" stroke="black" cx="1593.38" cy="-162" rx="217.96" ry="18"/>
<text text-anchor="middle" x="1593.38" y="-158.3" font-family="Times,serif" font-size="14.00">[root] module.pets.output.nome_01 (expand)</text>
</g>
<!-- [root] module.pets (close)&#45;&gt;[root] module.pets.output.nome_01 (expand) -->
<g id="edge3" class="edge">
<title>[root] module.pets (close)&#45;&gt;[root] module.pets.output.nome_01 (expand)</title>
<path fill="none" stroke="black" d="M1223.73,-220.12C1297.37,-208.74 1405.22,-192.08 1485.43,-179.68"/>
<polygon fill="black" stroke="black" points="1486.22,-183.1 1495.57,-178.11 1485.15,-176.18 1486.22,-183.1"/>
</g>
<!-- [root] module.pets.output.nome_02 (expand) -->
<g id="node9" class="node">
<title>[root] module.pets.output.nome_02 (expand)</title>
<ellipse fill="none" stroke="black" cx="1140.38" cy="-162" rx="217.96" ry="18"/>
<text text-anchor="middle" x="1140.38" y="-158.3" font-family="Times,serif" font-size="14.00">[root] module.pets.output.nome_02 (expand)</text>
</g>
<!-- [root] module.pets (close)&#45;&gt;[root] module.pets.output.nome_02 (expand) -->
<g id="edge4" class="edge">
<title>[root] module.pets (close)&#45;&gt;[root] module.pets.output.nome_02 (expand)</title>
<path fill="none" stroke="black" d="M1140.38,-215.7C1140.38,-207.98 1140.38,-198.71 1140.38,-190.11"/>
<polygon fill="black" stroke="black" points="1143.88,-190.1 1140.38,-180.1 1136.88,-190.1 1143.88,-190.1"/>
</g>
<!-- [root] module.pets.output.nome_01 (expand)&#45;&gt;[root] module.pets.random_pet.pet01 (expand) -->
<g id="edge11" class="edge">
<title>[root] module.pets.output.nome_01 (expand)&#45;&gt;[root] module.pets.random_pet.pet01 (expand)</title>
<path fill="none" stroke="black" d="M1588.44,-143.7C1586.21,-135.9 1583.52,-126.51 1581.04,-117.83"/>
<polygon fill="black" stroke="black" points="1584.38,-116.76 1578.27,-108.1 1577.65,-118.68 1584.38,-116.76"/>
</g>
<!-- [root] module.pets.output.nome_02 (expand)&#45;&gt;[root] module.pets.random_pet.pet02 (expand) -->
<g id="edge12" class="edge">
<title>[root] module.pets.output.nome_02 (expand)&#45;&gt;[root] module.pets.random_pet.pet02 (expand)</title>
<path fill="none" stroke="black" d="M1173.54,-144.05C1192,-134.62 1215.17,-122.78 1234.94,-112.68"/>
<polygon fill="black" stroke="black" points="1236.73,-115.7 1244.05,-108.03 1233.55,-109.46 1236.73,-115.7"/>
</g>
<!-- [root] module.pets.var.prefixo_arquivo (expand)&#45;&gt;[root] module.pets (expand) -->
<g id="edge17" class="edge">
<title>[root] module.pets.var.prefixo_arquivo (expand)&#45;&gt;[root] module.pets (expand)</title>
<path fill="none" stroke="black" d="M382.41,-76.32C542.67,-62.87 792.87,-41.87 941.82,-29.37"/>
<polygon fill="black" stroke="black" points="942.25,-32.85 951.92,-28.52 941.66,-25.87 942.25,-32.85"/>
</g>
<!-- [root] output.nome_pet01 (expand) -->
<g id="node12" class="node">
<title>[root] output.nome_pet01 (expand)</title>
<ellipse fill="none" stroke="black" cx="1079.38" cy="-306" rx="172.77" ry="18"/>
<text text-anchor="middle" x="1079.38" y="-302.3" font-family="Times,serif" font-size="14.00">[root] output.nome_pet01 (expand)</text>
</g>
<!-- [root] output.nome_pet01 (expand)&#45;&gt;[root] module.pets (close) -->
<g id="edge18" class="edge">
<title>[root] output.nome_pet01 (expand)&#45;&gt;[root] module.pets (close)</title>
<path fill="none" stroke="black" d="M1094.15,-288.05C1101.53,-279.58 1110.6,-269.17 1118.75,-259.82"/>
<polygon fill="black" stroke="black" points="1121.39,-262.11 1125.33,-252.28 1116.12,-257.51 1121.39,-262.11"/>
</g>
<!-- [root] output.nome_pet02 (expand) -->
<g id="node13" class="node">
<title>[root] output.nome_pet02 (expand)</title>
<ellipse fill="none" stroke="black" cx="1443.38" cy="-306" rx="172.77" ry="18"/>
<text text-anchor="middle" x="1443.38" y="-302.3" font-family="Times,serif" font-size="14.00">[root] output.nome_pet02 (expand)</text>
</g>
<!-- [root] output.nome_pet02 (expand)&#45;&gt;[root] module.pets (close) -->
<g id="edge19" class="edge">
<title>[root] output.nome_pet02 (expand)&#45;&gt;[root] module.pets (close)</title>
<path fill="none" stroke="black" d="M1375.76,-289.38C1327.78,-278.29 1263.43,-263.43 1214.13,-252.04"/>
<polygon fill="black" stroke="black" points="1214.7,-248.58 1204.17,-249.74 1213.12,-255.4 1214.7,-248.58"/>
</g>
<!-- [root] provider[&quot;registry.terraform.io/hashicorp/local&quot;] (close) -->
<g id="node14" class="node">
<title>[root] provider[&quot;registry.terraform.io/hashicorp/local&quot;] (close)</title>
<ellipse fill="none" stroke="black" cx="696.38" cy="-234" rx="295.95" ry="18"/>
<text text-anchor="middle" x="696.38" y="-230.3" font-family="Times,serif" font-size="14.00">[root] provider[&quot;registry.terraform.io/hashicorp/local&quot;] (close)</text>
</g>
<!-- [root] provider[&quot;registry.terraform.io/hashicorp/local&quot;] (close)&#45;&gt;[root] module.pets.local_file.arquivo (expand) -->
<g id="edge20" class="edge">
<title>[root] provider[&quot;registry.terraform.io/hashicorp/local&quot;] (close)&#45;&gt;[root] module.pets.local_file.arquivo (expand)</title>
<path fill="none" stroke="black" d="M719.62,-215.7C731.57,-206.8 746.3,-195.82 759.23,-186.2"/>
<polygon fill="black" stroke="black" points="761.48,-188.88 767.41,-180.1 757.3,-183.27 761.48,-188.88"/>
</g>
<!-- [root] provider[&quot;registry.terraform.io/hashicorp/local&quot;] (close)&#45;&gt;[root] module.pets.local_file.outro_arquivo (expand) -->
<g id="edge21" class="edge">
<title>[root] provider[&quot;registry.terraform.io/hashicorp/local&quot;] (close)&#45;&gt;[root] module.pets.local_file.outro_arquivo (expand)</title>
<path fill="none" stroke="black" d="M653.77,-216.05C629.31,-206.33 598.4,-194.03 572.5,-183.73"/>
<polygon fill="black" stroke="black" points="573.79,-180.48 563.2,-180.03 571.2,-186.98 573.79,-180.48"/>
</g>
<!-- [root] provider[&quot;registry.terraform.io/hashicorp/random&quot;] (close) -->
<g id="node15" class="node">
<title>[root] provider[&quot;registry.terraform.io/hashicorp/random&quot;] (close)</title>
<ellipse fill="none" stroke="black" cx="2138.38" cy="-162" rx="309.25" ry="18"/>
<text text-anchor="middle" x="2138.38" y="-158.3" font-family="Times,serif" font-size="14.00">[root] provider[&quot;registry.terraform.io/hashicorp/random&quot;] (close)</text>
</g>
<!-- [root] provider[&quot;registry.terraform.io/hashicorp/random&quot;] (close)&#45;&gt;[root] module.pets.random_pet.pet01 (expand) -->
<g id="edge22" class="edge">
<title>[root] provider[&quot;registry.terraform.io/hashicorp/random&quot;] (close)&#45;&gt;[root] module.pets.random_pet.pet01 (expand)</title>
<path fill="none" stroke="black" d="M2013.34,-145.51C1921.29,-134.1 1796.48,-118.64 1703.3,-107.1"/>
<polygon fill="black" stroke="black" points="1703.6,-103.61 1693.25,-105.85 1702.74,-110.55 1703.6,-103.61"/>
</g>
<!-- [root] provider[&quot;registry.terraform.io/hashicorp/random&quot;] (close)&#45;&gt;[root] module.pets.random_pet.pet02 (expand) -->
<g id="edge23" class="edge">
<title>[root] provider[&quot;registry.terraform.io/hashicorp/random&quot;] (close)&#45;&gt;[root] module.pets.random_pet.pet02 (expand)</title>
<path fill="none" stroke="black" d="M1948.93,-147.77C1809.58,-137.73 1615.6,-123.12 1445.38,-108 1433.05,-106.91 1420.22,-105.71 1407.39,-104.47"/>
<polygon fill="black" stroke="black" points="1407.4,-100.96 1397.11,-103.48 1406.72,-107.93 1407.4,-100.96"/>
</g>
<!-- [root] root -->
<g id="node16" class="node">
<title>[root] root</title>
<ellipse fill="none" stroke="black" cx="1261.38" cy="-378" rx="58.49" ry="18"/>
<text text-anchor="middle" x="1261.38" y="-374.3" font-family="Times,serif" font-size="14.00">[root] root</text>
</g>
<!-- [root] root&#45;&gt;[root] output.nome_pet01 (expand) -->
<g id="edge24" class="edge">
<title>[root] root&#45;&gt;[root] output.nome_pet01 (expand)</title>
<path fill="none" stroke="black" d="M1226.29,-363.5C1199.54,-353.21 1162.26,-338.88 1131.95,-327.22"/>
<polygon fill="black" stroke="black" points="1132.97,-323.86 1122.38,-323.54 1130.46,-330.4 1132.97,-323.86"/>
</g>
<!-- [root] root&#45;&gt;[root] output.nome_pet02 (expand) -->
<g id="edge25" class="edge">
<title>[root] root&#45;&gt;[root] output.nome_pet02 (expand)</title>
<path fill="none" stroke="black" d="M1296.47,-363.5C1323.22,-353.21 1360.5,-338.88 1390.8,-327.22"/>
<polygon fill="black" stroke="black" points="1392.3,-330.4 1400.38,-323.54 1389.79,-323.86 1392.3,-330.4"/>
</g>
<!-- [root] root&#45;&gt;[root] provider[&quot;registry.terraform.io/hashicorp/local&quot;] (close) -->
<g id="edge26" class="edge">
<title>[root] root&#45;&gt;[root] provider[&quot;registry.terraform.io/hashicorp/local&quot;] (close)</title>
<path fill="none" stroke="black" d="M1204.56,-373.53C1132.07,-368.01 1003.38,-354.56 897.38,-324 839.33,-307.26 776.21,-277.19 736.49,-256.68"/>
<polygon fill="black" stroke="black" points="737.89,-253.46 727.4,-251.94 734.65,-259.67 737.89,-253.46"/>
</g>
<!-- [root] root&#45;&gt;[root] provider[&quot;registry.terraform.io/hashicorp/random&quot;] (close) -->
<g id="edge27" class="edge">
<title>[root] root&#45;&gt;[root] provider[&quot;registry.terraform.io/hashicorp/random&quot;] (close)</title>
<path fill="none" stroke="black" d="M1316.46,-371.75C1388.19,-364.28 1517.2,-348.68 1625.38,-324 1795.46,-285.19 1990.61,-217.24 2083.59,-183.38"/>
<polygon fill="black" stroke="black" points="2084.88,-186.64 2093.07,-179.92 2082.47,-180.06 2084.88,-186.64"/>
</g>
</g>
</svg>
